<svg width="47" height="12" viewBox="0 0 47 12" fill="none" xmlns="http://www.w3.org/2000/svg">
<circle cx="26.9178" cy="6.06213" r="3.3125" stroke="white" stroke-opacity="0.15" stroke-width="3.68056"/>
<circle opacity="0.6" cx="26.9178" cy="6.06213" r="2.94444" stroke="white" stroke-width="0.736111"/>
<path d="M1.85696 10.1108H0.785889L3.88377 2.01355H4.93837L8.03624 10.1108H6.96517L4.44402 3.29456H4.37811L1.85696 10.1108ZM2.25244 6.94779H6.5697V7.81761H2.25244V6.94779Z" fill="white"/>
<path d="M9.69641 10.1108H8.62534L11.7232 2.01355H12.7778L15.8757 10.1108H14.8046L12.2835 3.29456H12.2176L9.69641 10.1108ZM10.0919 6.94779H14.4091V7.81761H10.0919V6.94779Z" fill="white"/>
<path d="M17.1898 10.1108V2.01355H20.0405C20.6997 2.01355 21.2407 2.12162 21.6636 2.33775C22.0866 2.55126 22.3996 2.84515 22.6029 3.21944C22.8061 3.59372 22.9077 4.0194 22.9077 4.49649C22.9077 4.97357 22.8061 5.39662 22.6029 5.76563C22.3996 6.13465 22.0879 6.42459 21.6677 6.63545C21.2475 6.84368 20.7106 6.94779 20.057 6.94779H17.7501V6.06216H20.024C20.4745 6.06216 20.837 5.9989 21.1116 5.87238C21.389 5.74586 21.5895 5.56663 21.7131 5.33468C21.8394 5.10009 21.9026 4.82069 21.9026 4.49649C21.9026 4.17228 21.8394 3.88893 21.7131 3.64644C21.5867 3.40394 21.3849 3.2168 21.1075 3.08501C20.8301 2.95058 20.4635 2.88337 20.0076 2.88337H18.2115V10.1108H17.1898ZM21.161 6.47335L23.2373 10.1108H22.0509L20.0076 6.47335H21.161Z" fill="white"/>
<path d="M38.0393 2.01355V10.1108H37.0484L32.441 3.75319H32.3584V10.1108H31.3345V2.01355H32.3254L36.9493 8.38695H37.0319V2.01355H38.0393Z" fill="white"/>
<path d="M46.7928 2.01355V10.1108H45.802L41.1945 3.75319H41.1119V10.1108H40.0881V2.01355H41.0789L45.7029 8.38695H45.7855V2.01355H46.7928Z" fill="white"/>
</svg>
